<mxfile host="app.diagrams.net" modified="2022-03-15T16:23:27.584Z" agent="5.0 (Windows NT 10.0; Win64; x64) AppleWebKit/537.36 (KHTML, like Gecko) Chrome/99.0.4844.51 Safari/537.36" etag="kkPRUtIUPa45XTG5cidY" version="17.1.1" type="github">
  <diagram id="A1rt3nXb9GKF9Gh3-TdT" name="Page-1">
    <mxGraphModel dx="545" dy="301" grid="1" gridSize="10" guides="1" tooltips="1" connect="1" arrows="1" fold="1" page="1" pageScale="1" pageWidth="827" pageHeight="1169" math="0" shadow="0">
      <root>
        <mxCell id="0" />
        <mxCell id="1" parent="0" />
        <mxCell id="2wkd_Gz07CFqOtNj6Nzz-4" value="&lt;span style=&quot;background-color: rgb(255 , 255 , 255)&quot;&gt;BE&lt;br&gt;&lt;/span&gt;" style="rounded=1;whiteSpace=wrap;html=1;" parent="1" vertex="1">
          <mxGeometry x="320" y="585" width="140" height="50" as="geometry" />
        </mxCell>
        <mxCell id="2wkd_Gz07CFqOtNj6Nzz-6" value="&lt;span style=&quot;background-color: rgb(255 , 255 , 255)&quot;&gt;FE&lt;br&gt;useEffect = [ token, roomid, nickname]&lt;br&gt;&lt;/span&gt;" style="rounded=1;whiteSpace=wrap;html=1;" parent="1" vertex="1">
          <mxGeometry x="70" y="585" width="165" height="50" as="geometry" />
        </mxCell>
        <mxCell id="2wkd_Gz07CFqOtNj6Nzz-7" value="roomId&#xa;nickname&#xa;token &#xa;전달&#xa;" style="text;strokeColor=none;fillColor=none;align=left;verticalAlign=middle;spacingLeft=4;spacingRight=4;overflow=hidden;points=[[0,0.5],[1,0.5]];portConstraint=eastwest;rotatable=0;labelBackgroundColor=#FFFFFF;fontColor=#000000;" parent="1" vertex="1">
          <mxGeometry x="169" y="709" width="80" height="60" as="geometry" />
        </mxCell>
        <mxCell id="2wkd_Gz07CFqOtNj6Nzz-8" value="" style="endArrow=classic;html=1;rounded=0;fontColor=#000000;entryX=0;entryY=0.5;entryDx=0;entryDy=0;exitX=0.337;exitY=0.983;exitDx=0;exitDy=0;exitPerimeter=0;" parent="1" source="2wkd_Gz07CFqOtNj6Nzz-6" target="2wkd_Gz07CFqOtNj6Nzz-10" edge="1">
          <mxGeometry width="50" height="50" relative="1" as="geometry">
            <mxPoint x="153" y="640" as="sourcePoint" />
            <mxPoint x="180" y="535" as="targetPoint" />
          </mxGeometry>
        </mxCell>
        <mxCell id="2wkd_Gz07CFqOtNj6Nzz-10" value="localhost 4443" style="rounded=1;whiteSpace=wrap;html=1;" parent="1" vertex="1">
          <mxGeometry x="320" y="780" width="140" height="50" as="geometry" />
        </mxCell>
        <mxCell id="2wkd_Gz07CFqOtNj6Nzz-11" value="token 요청" style="text;strokeColor=none;fillColor=none;align=left;verticalAlign=middle;spacingLeft=4;spacingRight=4;overflow=hidden;points=[[0,0.5],[1,0.5]];portConstraint=eastwest;rotatable=0;labelBackgroundColor=#FFFFFF;fontColor=#000000;" parent="1" vertex="1">
          <mxGeometry x="323" y="702" width="80" height="30" as="geometry" />
        </mxCell>
        <mxCell id="2wkd_Gz07CFqOtNj6Nzz-14" value="" style="endArrow=classic;html=1;rounded=0;fontColor=#000000;entryX=0;entryY=0.5;entryDx=0;entryDy=0;" parent="1" target="2wkd_Gz07CFqOtNj6Nzz-4" edge="1">
          <mxGeometry width="50" height="50" relative="1" as="geometry">
            <mxPoint x="235" y="609.71" as="sourcePoint" />
            <mxPoint x="315" y="609.71" as="targetPoint" />
          </mxGeometry>
        </mxCell>
        <mxCell id="2wkd_Gz07CFqOtNj6Nzz-15" value="token&#xa;roomId&#xa;nickname요청" style="text;strokeColor=none;fillColor=none;align=left;verticalAlign=middle;spacingLeft=4;spacingRight=4;overflow=hidden;points=[[0,0.5],[1,0.5]];portConstraint=eastwest;rotatable=0;labelBackgroundColor=#FFFFFF;fontColor=#000000;" parent="1" vertex="1">
          <mxGeometry x="235" y="557" width="86" height="55" as="geometry" />
        </mxCell>
        <mxCell id="2wkd_Gz07CFqOtNj6Nzz-16" value="&lt;span style=&quot;background-color: rgb(181 , 115 , 157)&quot;&gt;&lt;b&gt;1&lt;/b&gt;&lt;/span&gt;" style="ellipse;whiteSpace=wrap;html=1;labelBackgroundColor=#FFFFFF;fontColor=#000000;fillColor=#B5739D;" parent="1" vertex="1">
          <mxGeometry x="346" y="692" width="20" height="20" as="geometry" />
        </mxCell>
        <mxCell id="2wkd_Gz07CFqOtNj6Nzz-17" value="&lt;span style=&quot;background-color: rgb(181 , 115 , 157)&quot;&gt;&lt;b&gt;3&lt;/b&gt;&lt;/span&gt;" style="ellipse;whiteSpace=wrap;html=1;labelBackgroundColor=#FFFFFF;fontColor=#000000;fillColor=#B5739D;" parent="1" vertex="1">
          <mxGeometry x="169" y="692" width="20" height="20" as="geometry" />
        </mxCell>
        <mxCell id="2wkd_Gz07CFqOtNj6Nzz-18" value="&lt;span style=&quot;background-color: rgb(181 , 115 , 157)&quot;&gt;&lt;b&gt;2&lt;/b&gt;&lt;/span&gt;" style="ellipse;whiteSpace=wrap;html=1;labelBackgroundColor=#FFFFFF;fontColor=#000000;fillColor=#B5739D;" parent="1" vertex="1">
          <mxGeometry x="239" y="542" width="20" height="20" as="geometry" />
        </mxCell>
        <mxCell id="2wkd_Gz07CFqOtNj6Nzz-19" value="" style="endArrow=classic;html=1;rounded=0;fontColor=#000000;entryX=0.5;entryY=0;entryDx=0;entryDy=0;exitX=0.5;exitY=1;exitDx=0;exitDy=0;" parent="1" source="2wkd_Gz07CFqOtNj6Nzz-4" target="2wkd_Gz07CFqOtNj6Nzz-10" edge="1">
          <mxGeometry width="50" height="50" relative="1" as="geometry">
            <mxPoint x="230" y="730" as="sourcePoint" />
            <mxPoint x="280" y="680" as="targetPoint" />
          </mxGeometry>
        </mxCell>
        <mxCell id="2wkd_Gz07CFqOtNj6Nzz-25" value="" style="endArrow=classic;html=1;rounded=0;fontColor=#000000;entryX=0.462;entryY=1.007;entryDx=0;entryDy=0;entryPerimeter=0;" parent="1" target="2wkd_Gz07CFqOtNj6Nzz-6" edge="1">
          <mxGeometry width="50" height="50" relative="1" as="geometry">
            <mxPoint x="320" y="790" as="sourcePoint" />
            <mxPoint x="370" y="740" as="targetPoint" />
          </mxGeometry>
        </mxCell>
        <mxCell id="2wkd_Gz07CFqOtNj6Nzz-26" value="Video 출력" style="text;strokeColor=none;fillColor=none;align=left;verticalAlign=middle;spacingLeft=4;spacingRight=4;overflow=hidden;points=[[0,0.5],[1,0.5]];portConstraint=eastwest;rotatable=0;labelBackgroundColor=#FFFFFF;fontColor=#000000;" parent="1" vertex="1">
          <mxGeometry x="245" y="704" width="80" height="30" as="geometry" />
        </mxCell>
        <mxCell id="2wkd_Gz07CFqOtNj6Nzz-27" value="&lt;span style=&quot;background-color: rgb(181 , 115 , 157)&quot;&gt;&lt;b&gt;4&lt;/b&gt;&lt;/span&gt;" style="ellipse;whiteSpace=wrap;html=1;labelBackgroundColor=#FFFFFF;fontColor=#000000;fillColor=#B5739D;" parent="1" vertex="1">
          <mxGeometry x="235" y="692" width="20" height="20" as="geometry" />
        </mxCell>
        <mxCell id="2wkd_Gz07CFqOtNj6Nzz-28" value="" style="endArrow=classic;html=1;rounded=0;fontColor=#000000;exitX=0.5;exitY=1;exitDx=0;exitDy=0;" parent="1" edge="1">
          <mxGeometry width="50" height="50" relative="1" as="geometry">
            <mxPoint x="403" y="779.5" as="sourcePoint" />
            <mxPoint x="403" y="635" as="targetPoint" />
          </mxGeometry>
        </mxCell>
        <mxCell id="2wkd_Gz07CFqOtNj6Nzz-30" value="token 전달" style="text;strokeColor=none;fillColor=none;align=left;verticalAlign=middle;spacingLeft=4;spacingRight=4;overflow=hidden;points=[[0,0.5],[1,0.5]];portConstraint=eastwest;rotatable=0;labelBackgroundColor=#FFFFFF;fontColor=#000000;" parent="1" vertex="1">
          <mxGeometry x="405" y="702" width="80" height="30" as="geometry" />
        </mxCell>
        <mxCell id="2wkd_Gz07CFqOtNj6Nzz-35" value="" style="endArrow=classic;html=1;rounded=0;fontColor=#000000;" parent="1" edge="1">
          <mxGeometry width="50" height="50" relative="1" as="geometry">
            <mxPoint x="320" y="620" as="sourcePoint" />
            <mxPoint x="235" y="620" as="targetPoint" />
          </mxGeometry>
        </mxCell>
        <mxCell id="2wkd_Gz07CFqOtNj6Nzz-36" value="token&#xa;roomId&#xa;nickname전달" style="text;strokeColor=none;fillColor=none;align=left;verticalAlign=middle;spacingLeft=4;spacingRight=4;overflow=hidden;points=[[0,0.5],[1,0.5]];portConstraint=eastwest;rotatable=0;labelBackgroundColor=#FFFFFF;fontColor=#000000;" parent="1" vertex="1">
          <mxGeometry x="237" y="618" width="86" height="55" as="geometry" />
        </mxCell>
        <mxCell id="2wkd_Gz07CFqOtNj6Nzz-37" value="openvidu&lt;br&gt;video 출력&lt;br&gt;" style="rounded=1;whiteSpace=wrap;html=1;labelBackgroundColor=none;fontColor=#000000;fillColor=#FFFFFF;align=center;verticalAlign=top;spacing=10;" parent="1" vertex="1">
          <mxGeometry x="70" y="910" width="290" height="420" as="geometry" />
        </mxCell>
        <mxCell id="2wkd_Gz07CFqOtNj6Nzz-39" value="token" style="rounded=1;whiteSpace=wrap;html=1;labelBackgroundColor=none;fontColor=#000000;fillColor=#FFFFFF;" parent="1" vertex="1">
          <mxGeometry x="80" y="970" width="120" height="60" as="geometry" />
        </mxCell>
        <mxCell id="2wkd_Gz07CFqOtNj6Nzz-40" value="session" style="rounded=1;whiteSpace=wrap;html=1;labelBackgroundColor=none;fontColor=#000000;fillColor=#FFFFFF;" parent="1" vertex="1">
          <mxGeometry x="218" y="970" width="120" height="60" as="geometry" />
        </mxCell>
        <mxCell id="2wkd_Gz07CFqOtNj6Nzz-41" value="" style="rounded=1;whiteSpace=wrap;html=1;labelBackgroundColor=none;fontColor=#000000;fillColor=#FFFFFF;" parent="1" vertex="1">
          <mxGeometry x="29" y="20" width="770" height="430" as="geometry" />
        </mxCell>
        <mxCell id="2wkd_Gz07CFqOtNj6Nzz-42" value="Room1" style="rounded=1;whiteSpace=wrap;html=1;labelBackgroundColor=none;fontColor=#000000;fillColor=#FFFFFF;" parent="1" vertex="1">
          <mxGeometry x="324" width="180" height="40" as="geometry" />
        </mxCell>
        <mxCell id="2wkd_Gz07CFqOtNj6Nzz-43" value="" style="ellipse;whiteSpace=wrap;html=1;labelBackgroundColor=none;fontColor=#000000;fillColor=#FFFFFF;" parent="1" vertex="1">
          <mxGeometry x="94" y="69" width="120" height="115" as="geometry" />
        </mxCell>
        <mxCell id="2wkd_Gz07CFqOtNj6Nzz-44" value="" style="ellipse;whiteSpace=wrap;html=1;labelBackgroundColor=none;fontColor=#000000;fillColor=#FFFFFF;" parent="1" vertex="1">
          <mxGeometry x="484" y="209" width="120" height="115" as="geometry" />
        </mxCell>
        <mxCell id="2wkd_Gz07CFqOtNj6Nzz-45" value="" style="ellipse;whiteSpace=wrap;html=1;labelBackgroundColor=none;fontColor=#000000;fillColor=#FFFFFF;" parent="1" vertex="1">
          <mxGeometry x="94" y="209" width="120" height="115" as="geometry" />
        </mxCell>
        <mxCell id="2wkd_Gz07CFqOtNj6Nzz-46" value="" style="ellipse;whiteSpace=wrap;html=1;labelBackgroundColor=none;fontColor=#000000;fillColor=#FFFFFF;" parent="1" vertex="1">
          <mxGeometry x="614" y="209" width="120" height="115" as="geometry" />
        </mxCell>
        <mxCell id="2wkd_Gz07CFqOtNj6Nzz-47" value="" style="ellipse;whiteSpace=wrap;html=1;labelBackgroundColor=none;fontColor=#000000;fillColor=#FFFFFF;" parent="1" vertex="1">
          <mxGeometry x="484" y="69" width="120" height="115" as="geometry" />
        </mxCell>
        <mxCell id="2wkd_Gz07CFqOtNj6Nzz-48" value="" style="ellipse;whiteSpace=wrap;html=1;labelBackgroundColor=none;fontColor=#000000;fillColor=#FFFFFF;" parent="1" vertex="1">
          <mxGeometry x="354" y="69" width="120" height="116" as="geometry" />
        </mxCell>
        <mxCell id="2wkd_Gz07CFqOtNj6Nzz-49" value="" style="ellipse;whiteSpace=wrap;html=1;labelBackgroundColor=none;fontColor=#000000;fillColor=#FFFFFF;" parent="1" vertex="1">
          <mxGeometry x="354" y="209" width="120" height="115" as="geometry" />
        </mxCell>
        <mxCell id="2wkd_Gz07CFqOtNj6Nzz-50" value="" style="ellipse;whiteSpace=wrap;html=1;labelBackgroundColor=none;fontColor=#000000;fillColor=#FFFFFF;" parent="1" vertex="1">
          <mxGeometry x="223" y="208" width="120" height="117" as="geometry" />
        </mxCell>
        <mxCell id="2wkd_Gz07CFqOtNj6Nzz-51" value="" style="ellipse;whiteSpace=wrap;html=1;labelBackgroundColor=none;fontColor=#000000;fillColor=#FFFFFF;" parent="1" vertex="1">
          <mxGeometry x="223" y="69" width="120" height="115" as="geometry" />
        </mxCell>
        <mxCell id="2wkd_Gz07CFqOtNj6Nzz-52" value="" style="ellipse;whiteSpace=wrap;html=1;labelBackgroundColor=none;fontColor=#000000;fillColor=#FFFFFF;" parent="1" vertex="1">
          <mxGeometry x="614" y="69" width="120" height="115" as="geometry" />
        </mxCell>
        <mxCell id="1-QUR93QamyhK0k9fkzL-1" value="" style="ellipse;whiteSpace=wrap;html=1;labelBackgroundColor=none;fontColor=#000000;fillColor=#FFFFFF;" vertex="1" parent="1">
          <mxGeometry x="94" y="69" width="120" height="115" as="geometry" />
        </mxCell>
        <mxCell id="1-QUR93QamyhK0k9fkzL-2" value="" style="ellipse;whiteSpace=wrap;html=1;labelBackgroundColor=none;fontColor=#000000;fillColor=#FFFFFF;" vertex="1" parent="1">
          <mxGeometry x="223" y="69" width="120" height="115" as="geometry" />
        </mxCell>
      </root>
    </mxGraphModel>
  </diagram>
</mxfile>
